# xmcd CD database file generated by OrangeCD 4.2
#
# Track frame offsets:
#	150
#	12102
#	22749
#	41922
#	60769
#	72084
#	82573
#	94704
#	108547
#	119459
#	134307
#	145327
#	162801
#
# Disc length: 2635 seconds
#
# Revision: 0
# Processed by: cddbd v1.4PL0 Copyright (c) Steve Scherf et al.
# Submitted via: OrangeCD 4.2
#
DISCID=980a490d
DTITLE=Black Liars - The Black Album
DYEAR=1900
DGENRE=Country
TTITLE0=Folsom Prison Blues
TTITLE1=Every Kind of Music But Country
TTITLE2=Little Buffalo
TTITLE3=My Wife Thinks You're Dead
TTITLE4=Le Bal A Chataignier
TTITLE5=Bales of Cocaine
TTITLE6=Orange Blossom Special
TTITLE7=Magnificent 4
TTITLE8=Game
TTITLE9=Everybody Loves Me
TTITLE10=Fuck This Town
TTITLE11=Cowboy Song
TTITLE12=Can't Get You Outta My Head
EXTD=
EXTT0=
EXTT1=
EXTT2=
EXTT3=
EXTT4=
EXTT5=
EXTT6=
EXTT7=
EXTT8=
EXTT9=
EXTT10=
EXTT11=
EXTT12=
PLAYORDER=
